<svg xmlns="http://www.w3.org/2000/svg" version="1.1" xmlns:xlink="http://www.w3.org/1999/xlink" xmlns:svgjs="http://svgjs.dev/svgjs" width="1000" height="623" viewBox="0 0 1000 623"><g transform="matrix(1,0,0,1,-0.6060606060606233,0.2522267206477409)"><svg viewBox="0 0 396 247" data-background-color="#ffffff" preserveAspectRatio="xMidYMid meet" height="623" width="1000" xmlns="http://www.w3.org/2000/svg" xmlns:xlink="http://www.w3.org/1999/xlink"><g id="tight-bounds" transform="matrix(1,0,0,1,0.2400000000000091,-0.09999999999999432)"><svg viewBox="0 0 395.52 247.2" height="247.2" width="395.52"><g><svg></svg></g><g><svg viewBox="0 0 395.52 247.2" height="247.2" width="395.52"><g transform="matrix(1,0,0,1,130.744187012987,47.215199999999996)"><svg viewBox="0 0 134.03162597402599 152.7696" height="152.7696" width="134.03162597402599"><g><svg viewBox="0 0 134.03162597402599 152.7696" height="152.7696" width="134.03162597402599"><g><svg viewBox="0 0 134.03162597402599 152.7696" height="152.7696" width="134.03162597402599"><g><svg viewBox="0 0 134.03162597402599 152.7696" height="152.7696" width="134.03162597402599"><g id="textblocktransform"><svg viewBox="0 0 134.03162597402599 152.7696" height="152.7696" width="134.03162597402599" id="textblock"><g><svg viewBox="0 0 134.03162597402599 152.7696" height="152.7696" width="134.03162597402599"><g transform="matrix(1,0,0,1,0,0)"><svg width="134.03162597402599" viewBox="1.6500000953674316 -34.650001525878906 30.399999618530273 34.650001525878906" height="152.7696" data-palette-color="#a437db"><path d="M27.25 0L24.45-7.75 9.25-7.75 6.45 0 1.65 0 14.25-34.65 19.5-34.65 32.05 0 27.25 0ZM10.55-11.45L23.15-11.45 16.85-29.05 10.55-11.45Z" opacity="1" transform="matrix(1,0,0,1,0,0)" fill="#a437db" class="undefined-text-0" data-fill-palette-color="primary" id="text-0"></path></svg></g></svg></g></svg></g></svg></g></svg></g></svg></g></svg></g><path d="M313.046 41.215L313.046 0 65.846 0 65.846 247.2 313.046 247.2 313.046 205.985 299.269 205.985 299.269 233.423 79.622 233.423 79.622 13.777 299.269 13.777 299.269 41.215Z" fill="#a437db" stroke="transparent" data-fill-palette-color="primary"></path></svg></g><defs></defs></svg><rect width="395.52" height="247.2" fill="none" stroke="none" visibility="hidden"></rect></g></svg></g></svg>